<svg width="1902" height="1652" viewBox="0 0 1902 1652" fill="none" xmlns="http://www.w3.org/2000/svg">
<path d="M120.873 1354.06L1 1649.61H38.9599L138.854 1392.06L192.798 1527.17H118.876L108.886 1556.72H202.787L238.749 1649.61H280.705L160.831 1354.06H120.873Z" fill="#0D8A50" stroke="#0D8C51"/>
<path d="M808.135 1354.11L688.262 1649.66H726.222L826.116 1392.11L880.059 1527.22H806.137L796.148 1556.77H890.049L926.011 1649.66H967.966L848.093 1354.11H808.135Z" fill="#0D8A50" stroke="#0D8C51"/>
<path d="M1043.9 1385.77V1354.11H1253.68V1385.77H1165.77V1649.66H1129.81V1385.77H1043.9Z" fill="#0D8A50"/>
<path d="M1543.37 1385.77V1354.11H1361.56V1649.66H1547.37V1618H1397.52V1516.66H1537.38V1485H1397.52V1385.77H1543.37Z" fill="#0D8A50"/>
<path d="M1043.9 1385.77V1354.11H1253.68V1385.77H1165.77V1649.66H1129.81V1385.77H1043.9Z" stroke="#0D8C51"/>
<path d="M1543.37 1385.77V1354.11H1361.56V1649.66H1547.37V1618H1397.52V1516.66H1537.38V1485H1397.52V1385.77H1543.37Z" stroke="#0D8C51"/>
<path d="M1681.23 1354.11H1637.28L1745.16 1501.88L1637.28 1649.66H1681.23L1769.14 1531.44L1857.05 1649.66H1901L1791.12 1501.88L1901 1354.11H1857.05L1769.14 1472.33L1681.23 1354.11Z" fill="#0D8A50" stroke="#0D8C51"/>
<path d="M556.385 1514.55H592.347V1636.64C592.347 1636.86 592.211 1637.04 592.009 1637.11C563.178 1646.81 532.811 1651.12 502.421 1649.83L498.447 1649.67L478.152 1648.02C441.999 1645.08 409.503 1624.83 390.936 1593.67C388.026 1588.78 385.492 1583.69 383.356 1578.42L378.326 1566.02C360.58 1522.26 361.004 1473.24 379.503 1429.8L381.826 1424.35C384.977 1416.95 388.87 1409.89 393.444 1403.27C413.175 1374.74 444.368 1356.24 478.864 1352.59L484.461 1352H502.427C532.869 1352 563.109 1356.95 591.965 1366.65C592.193 1366.73 592.347 1366.94 592.347 1367.18V1398.44L591.333 1398.05C563.014 1387.17 532.748 1382.27 502.442 1383.67L483.511 1385.57C468.477 1387.08 454.193 1392.88 442.351 1402.26C433.243 1409.48 425.84 1418.62 420.668 1429.03L415.29 1439.85C397.15 1476.36 396.74 1519.17 414.177 1556.02L423.991 1576.76C426.996 1583.11 430.881 1589 435.532 1594.27C448.928 1609.44 467.903 1618.52 488.118 1619.45L502.442 1620.11H507.904C524.174 1620.11 540.375 1618.01 556.104 1613.85C556.27 1613.81 556.385 1613.66 556.385 1613.49V1546.22H502.442V1514.55H556.385Z" fill="#0D8A50"/>
<path d="M556.385 1514.55H592.347V1636.64C592.347 1636.86 592.211 1637.04 592.009 1637.11V1637.11C563.178 1646.81 532.811 1651.12 502.421 1649.83L498.447 1649.67L478.152 1648.02C441.999 1645.08 409.503 1624.83 390.936 1593.67V1593.67C388.026 1588.78 385.492 1583.69 383.356 1578.42L378.326 1566.02C360.58 1522.26 361.004 1473.24 379.503 1429.8L381.826 1424.35C384.977 1416.95 388.87 1409.89 393.444 1403.27V1403.27C413.175 1374.74 444.368 1356.24 478.864 1352.59L484.461 1352H502.427C532.869 1352 563.109 1356.95 591.965 1366.65V1366.65C592.193 1366.73 592.347 1366.94 592.347 1367.18V1398.44L591.333 1398.05C563.014 1387.17 532.748 1382.27 502.442 1383.67V1383.67L483.511 1385.57C468.477 1387.08 454.193 1392.88 442.351 1402.26V1402.26C433.243 1409.48 425.84 1418.62 420.668 1429.03L415.29 1439.85C397.15 1476.36 396.74 1519.17 414.177 1556.02L423.991 1576.76C426.996 1583.11 430.881 1589 435.532 1594.27V1594.27C448.928 1609.44 467.903 1618.52 488.118 1619.45L502.442 1620.11H507.904C524.174 1620.11 540.375 1618.01 556.104 1613.85V1613.85C556.27 1613.81 556.385 1613.66 556.385 1613.49V1546.22M556.385 1514.55H502.442V1546.22H556.385M556.385 1514.55V1546.22" stroke="#0D8C51"/>
<path d="M978.9 39.7C964.4 61.5 952.1 80 951.5 80.9C951 81.8 949.3 84.1 947.8 86.1C946.2 88.1 945 90.2 945 90.8C945 91.4 944.7 92 944.3 92.2C943.2 92.7 939 98.8 939 99.9C939 100.4 938.7 101 938.3 101.2C937.8 101.3 914.6 135.9 886.5 178C858.5 220 833.1 257.7 830.3 261.8C827.4 265.8 825 269.3 825 269.4C825 269.6 818.5 279.5 810.5 291.4C802.5 303.3 796 313.3 796 313.6C796 313.9 795.2 315 794.2 316.1C793.1 317.1 791.7 319.3 790.9 320.8C790.1 322.3 789.3 323.7 789 324C787.6 325.4 784 331 784 331.9C784 332.4 783.7 333 783.2 333.2C782.8 333.4 779.4 338 775.7 343.5C765.7 358.3 709.7 441.9 708.5 443.8C708 444.7 706.3 447.1 704.8 449.1C703.2 451.1 702 453.1 702 453.5C702 453.9 700.7 455.9 699 458C697.4 460.1 696 462.1 696 462.5C696 462.9 694.7 464.9 693 467C691.4 469.1 690 471.2 690 471.8C690 472.4 689.7 473 689.2 473.2C688.6 473.4 627.4 564.5 623.5 570.9C620.5 575.8 587.3 625.1 584.9 628.1C583.3 630.1 582 632.1 582 632.5C582 632.9 580.7 634.9 579 637C577.4 639.1 576 641.1 576 641.5C576 641.9 574.7 643.9 573 646C571.4 648.1 570 650 570 650.3C570 650.5 564.9 658.4 558.8 667.7C552.6 677 547.1 685.4 546.5 686.2C546 687.1 541.7 693.4 537.1 700.2C532.5 706.9 515.1 732.7 498.5 757.5C481.9 782.2 464.9 807.6 460.7 813.9C456.4 820.1 453 825.4 453 825.7C453 826 451.7 827.9 450 830C448.4 832.1 447 834.2 447 834.8C447 835.4 446.7 836 446.3 836.2C445.2 836.7 441 842.8 441 843.9C441 844.4 440.7 845 440.2 845.2C439.5 845.5 403.4 899.1 399.7 905.4C398.6 907.1 397 909.4 395.9 910.6C394.9 911.7 394 913.1 394 913.6C394 914.1 392.7 916.1 391 918C389.4 919.9 388.1 921.8 388 922.2C388 923 345.5 986.5 341.9 991.1C340.3 993.1 339 995.1 339 995.5C339 995.9 337.7 997.9 336 1000C334.4 1002.1 333 1004.1 333 1004.5C333 1004.9 331.7 1006.9 330 1009C328.4 1011.1 327 1013.1 327 1013.5C327 1013.9 325.7 1015.9 324 1018C322.4 1020.1 321 1022 321 1022.3C321 1022.6 317.2 1028.5 312.5 1035.4C307.8 1042.3 304 1048.4 304 1048.8C303.9 1049.2 302.6 1051.1 301 1053C299.3 1054.9 298 1056.9 298 1057.5C297.9 1058 296.6 1060.1 295 1062C293.3 1063.9 292 1065.8 292 1066.3C292 1066.7 291.2 1068 290.2 1069.1C289.1 1070.1 287.7 1072.3 286.9 1073.8C286.1 1075.3 285.2 1076.7 284.9 1077C284.5 1077.3 269.6 1099.3 251.8 1126C233.9 1152.7 215.9 1179.6 211.7 1185.9C207.4 1192.1 204 1197.4 204 1197.7C204 1198 202.8 1199.9 201.3 1201.9C199.7 1203.9 198.1 1206.3 197.5 1207.2C197 1208.1 185.3 1225.5 171.5 1246C157.8 1266.4 145.7 1284.6 144.7 1286.3C143.6 1288.1 142 1290.4 140.9 1291.6C139.9 1292.7 139 1293.9 139 1294.3C139 1294.6 133.8 1302.6 127.5 1312C121.2 1321.4 116 1329.5 116 1330C116 1330.6 184 1331.1 304.1 1331.2L492.3 1331.5L493.6 1329.4C494.4 1328.3 498.8 1315.9 503.4 1301.9C512.6 1274.6 516.7 1262.7 520 1254C521.2 1251 522.6 1247.1 523 1245.5C524.2 1241.4 526.3 1236 527.8 1233.3C528.5 1232.1 529 1230.4 529 1229.6C529 1228.7 529.4 1227.2 529.9 1226.2C530.5 1225.3 533 1219.1 535.6 1212.5C538.2 1205.9 541.1 1198.7 542 1196.5C543 1194.3 544.5 1190.2 545.5 1187.5C546.5 1184.7 547.7 1182 548.1 1181.5C548.5 1180.9 549.8 1178 551 1175C552.1 1172 554.2 1167.1 555.5 1164.2C556.9 1161.3 558 1158.7 558 1158.5C558 1158.2 560.1 1153.6 562.6 1148.2C565.1 1142.9 568 1136.7 569 1134.5C571.8 1128.1 591.4 1088.6 592 1088C592.3 1087.7 593.5 1085.5 594.8 1083C600.4 1072.3 608.6 1057.5 614.7 1047.5C615.4 1046.4 616.2 1044.8 616.6 1044C617 1043.2 618.5 1040.7 619.9 1038.5C623.7 1032.6 624.8 1030.7 625.6 1029C626.4 1027.4 627.8 1025.2 643.6 1001.7C649 993.5 654 986.1 654.5 985.2C655.8 983.2 654.4 985 672 961.5C690.8 936.4 693.8 932.6 710.9 912.5C716 906.5 721.3 900.5 722.6 899.3C723.9 898.1 725 896.8 725 896.4C725 895.6 750.6 868.6 766.5 852.6C776 843 800.1 820.3 808 813.6C809.4 812.4 813.4 808.9 817 805.9C820.6 802.8 827.6 797 832.5 793.1C837.5 789.2 844.1 783.8 847.3 781.2C850.5 778.6 853.7 776.3 854.3 776C855 775.7 858.9 773 863 770C873.6 762.1 881.3 756.8 890.9 750.8C895.5 747.9 900.4 744.7 901.9 743.8C903.3 742.8 905.2 741.7 906 741.3C906.8 740.9 909.1 739.5 911 738.2C912.9 736.9 915.4 735.4 916.5 734.9C917.6 734.4 920.1 733 922 731.9C923.9 730.7 928.4 728.1 932 726.2C935.6 724.2 941.2 721.1 944.5 719.3C947.8 717.5 955.2 713.8 961 711C966.8 708.2 975.6 703.9 980.5 701.4C985.5 699 990.3 697 991.1 697C992 697 993.3 696.3 994 695.5C994.7 694.7 995.9 694 996.7 694C997.5 694 999.4 693.4 1000.8 692.6C1003.4 691.3 1005 690.5 1014.5 686.5C1016.7 685.5 1019.8 684.1 1021.3 683.4C1022.9 682.6 1024.7 682 1025.4 682C1026.1 682 1028 681.4 1029.6 680.6C1031.2 679.8 1037.9 677.1 1044.5 674.6C1051.1 672 1057.3 669.5 1058.2 669C1059.2 668.4 1060.5 668 1061.1 668C1061.7 668 1063.6 667.4 1065.3 666.6C1067.1 665.8 1074.4 663.1 1081.5 660.5C1088.7 658 1096 655.3 1097.8 654.5C1099.6 653.7 1101.9 653 1102.8 653C1103.8 653 1105.4 652.4 1106.5 651.6C1107.6 650.9 1109.6 650 1111 649.7C1113.8 649.1 1118.8 647.4 1123.7 645.3C1125.4 644.6 1127.5 644 1128.3 644C1129.1 644 1131.1 643.3 1132.6 642.5C1134.2 641.7 1136.4 641 1137.5 641C1138.6 641 1140.4 640.3 1141.4 639.5C1142.5 638.7 1144.3 638 1145.5 638C1146.7 638 1148 637.6 1148.6 637.2C1149.1 636.7 1152.7 635.3 1156.5 634C1160.4 632.8 1166.4 630.4 1170 628.8C1173.6 627.2 1177.4 625.5 1178.5 625C1182.9 623.1 1213.7 607.8 1217 605.9C1218.9 604.8 1224.6 601.4 1229.5 598.4C1234.5 595.3 1239.4 592.3 1240.5 591.7C1241.6 591 1242.7 590.3 1243 590C1243.3 589.7 1246.2 587.7 1249.5 585.5C1252.8 583.3 1255.9 581.2 1256.5 580.7C1257 580.3 1261.6 576.9 1266.6 573.2C1284 560.4 1295.4 550.5 1313.4 532.5C1329.7 516.2 1344.3 499.2 1344.3 496.5C1344.3 495.9 1340.5 489.9 1335.9 483.1C1331.3 476.4 1327.1 470.1 1326.5 469.2C1326 468.3 1324.3 465.9 1322.9 464C1321.5 462.1 1316.1 454.2 1310.9 446.5C1305.7 438.8 1301.1 432.1 1300.7 431.5C1299.5 430 1283.6 407.1 1282.5 405.1C1282 404.2 1280.4 401.9 1279 400C1277.6 398.1 1276.1 395.8 1275.5 394.8C1275 393.9 1272.2 389.8 1269.4 385.8C1262.1 375.2 1239.7 342.1 1238.5 340.2C1238 339.3 1236.3 336.9 1234.8 334.9C1233.2 332.9 1232 330.9 1232 330.5C1232 330.2 1231.4 329.3 1230.8 328.5C1230.1 327.8 1226.1 322.2 1222 316C1217.9 309.8 1213.9 304.2 1213.3 303.5C1212.6 302.7 1212 301.8 1212 301.5C1212 301.1 1210.8 299.1 1209.3 297.1C1207.7 295.1 1206.1 292.8 1205.5 291.9C1205 291 1201.1 285.4 1197 279.5C1192.9 273.6 1188.7 267.3 1187.7 265.6C1186.6 263.9 1185 261.6 1183.9 260.4C1182.9 259.3 1182 258 1182 257.6C1182 257.2 1180.2 254.5 1178 251.6C1175.8 248.7 1174 245.9 1174 245.5C1174 245 1173.2 243.7 1172.1 242.6C1170.6 240.9 1148.1 207.9 1144.5 202.2C1144 201.3 1141.2 197.4 1138.5 193.6C1135.7 189.7 1130.3 181.8 1126.5 176C1122.7 170.2 1119.3 165.3 1119 165C1118.7 164.7 1118.1 163.7 1117.5 162.8C1117 161.9 1114.2 157.8 1111.5 153.8C1108.7 149.8 1103.1 141.5 1099.1 135.5C1095 129.4 1090.9 123.6 1089.9 122.5C1089 121.4 1087.4 119.1 1086.3 117.3C1084.6 114.3 1076.6 102.5 1061.8 81C1058.2 75.8 1052.4 67.2 1048.8 62C1045.3 56.8 1039.9 49 1036.9 44.7C1033.9 40.4 1031 36.1 1030.5 35.2C1029.9 34.3 1027.5 30.6 1025.1 27C1022.6 23.4 1017.5 15.9 1013.8 10.2C1010 4.59998 1006.5 -1.98409e-05 1006.1 -1.98409e-05C1005.7 -1.98409e-05 993.5 17.8 978.9 39.7ZM1009.9 81.2C1013.3 86.9 1034.4 117.5 1035.2 117.8C1035.6 118 1036 118.6 1036 119.2C1036 119.8 1037.2 121.9 1038.8 123.9C1040.3 125.9 1042 128.3 1042.5 129.2C1044.9 133.2 1068.6 167.8 1071.2 171.1C1072.7 173.1 1074 175.1 1074 175.5C1074 175.9 1075.3 177.9 1076.8 179.9C1078.4 181.9 1084.8 191.1 1091.1 200.5C1113.8 234.1 1124.4 249.6 1127.2 253.1C1128.7 255.1 1130 257.1 1130 257.5C1130 257.9 1131.2 259.9 1132.8 261.9C1134.3 263.9 1136 266.3 1136.5 267.2C1137.1 268.1 1139.8 272.1 1142.6 276.2C1145.4 280.2 1150.5 287.8 1154.1 293C1157.6 298.2 1160.8 302.6 1161.2 302.8C1161.7 303 1162 303.6 1162 304.2C1162 304.8 1163.2 306.9 1164.8 308.9C1166.3 310.9 1168 313.3 1168.5 314.2C1169.1 315.1 1171.9 319.4 1174.9 323.7C1181.5 333.2 1197.9 357.3 1200 360.5C1200.8 361.7 1206.2 369.6 1212 378C1217.8 386.4 1223.2 394.3 1224 395.6C1224.8 396.8 1228.7 402.5 1232.6 408.2C1236.5 413.9 1245.3 426.8 1252.2 437C1259.1 447.2 1267.5 459.5 1270.9 464.5C1274.3 469.4 1279.9 477.7 1283.2 482.7C1286.6 487.8 1289.7 492 1290.1 492C1293 492 1289.3 496.4 1276.2 508.7C1268.1 516.3 1260.3 523.4 1258.9 524.5C1257.6 525.6 1254.2 528.3 1251.5 530.5C1248.7 532.6 1246.3 534.7 1246 535.1C1245.7 535.4 1244.4 536.3 1243.2 536.9C1241.9 537.6 1239.2 539.6 1237.2 541.3C1235.1 543.1 1232.7 544.9 1231.8 545.5C1230.9 546 1226.1 549.3 1221.1 552.7C1216.1 556.2 1211.8 559 1211.6 559C1211.3 559 1209.2 560.3 1206.8 561.9C1201.1 565.7 1191.4 570.9 1174.5 579.3C1159.6 586.7 1159.4 586.7 1151 590.1C1148 591.3 1144.1 592.9 1142.3 593.6C1140.6 594.4 1138.6 595 1137.8 595C1137 595 1136.1 595.3 1135.7 595.6C1135.1 596.2 1094.5 610.3 1088 612.2C1086.1 612.7 1084.1 613.6 1083.6 614.1C1083 614.6 1082 615 1081.2 615C1080.4 615 1078.4 615.7 1076.7 616.4C1074.9 617.2 1070.8 618.8 1067.5 619.9C1064.2 621 1059 622.9 1056 624C1053 625.2 1049.1 626.6 1047.3 627.1C1045.5 627.6 1043.8 628.5 1043.5 629C1043.1 629.6 1042.1 630 1041.1 630C1040.1 630 1037.9 630.7 1036.4 631.5C1034.8 632.3 1032.8 633 1031.9 633C1031.1 633 1030 633.4 1029.4 633.8C1028.9 634.3 1025.6 635.7 1022 637C1018.4 638.3 1015.1 639.6 1014.5 640C1014 640.4 1011.3 641.5 1008.5 642.5C1003.6 644.2 1002.5 644.7 992.5 649C980.3 654.4 976.3 656.2 973.7 657.5C972.1 658.3 970.3 659 969.5 659C968.8 659 967.7 659.7 967 660.5C966.3 661.3 965 662 964.1 662C963.2 662.1 959.2 663.8 955.2 665.8C951.2 667.8 940.4 673.3 931.2 677.9C922 682.6 914.3 686.6 914 686.9C913.5 687.5 909.6 689.7 902.5 693.3C900.3 694.4 897.1 696.4 895.3 697.7C893.6 698.9 891.8 700 891.3 700C890.9 700 887.5 702 883.9 704.3C880.3 706.7 876.7 709 875.9 709.4C873.7 710.5 871 712.2 864.2 716.8C860.7 719.1 857.6 721 857.4 721C857.1 721 856.3 721.6 855.5 722.2C854.8 722.9 851.2 725.5 847.5 728C840.7 732.6 818.3 749 812.6 753.5C810.9 754.9 809.1 756.4 808.5 756.8C804.8 759.5 776.5 783.4 772 787.5C769 790.4 763.4 795.6 759.5 799.1C730.1 826.3 682.2 877.8 659.7 906.4C650 918.9 633.4 940.3 632 942.4C631.3 943.5 627.7 948.6 624 953.5C620.4 958.5 617.1 963.3 616.5 964.2C614.9 966.7 598 992.2 595.9 995.2C594.8 996.7 594 998.1 594 998.4C594 998.7 592.7 1000.8 591.1 1003.2C589.6 1005.6 587.2 1009.4 585.9 1011.7C584.6 1014 581.1 1019.7 578.3 1024.4C575.4 1029.1 573 1033.1 573 1033.4C573 1033.6 571.1 1037.1 568.7 1041.2C566.3 1045.2 564 1049.2 563.7 1050C563.3 1050.8 561 1055.1 558.5 1059.5C550.9 1073.5 523 1129.8 523 1131.3C523 1131.6 521.7 1134.8 520 1138.3C518.4 1141.9 517 1145.3 517 1145.9C517 1146.5 516.6 1147 516 1147C515.5 1147 515 1147.6 515 1148.2C515 1149.3 510.3 1160.9 503.8 1176C501.8 1180.7 501.4 1181.4 498.5 1189C497.5 1191.5 496.1 1194.8 495.4 1196.5C494.7 1198.1 493.8 1200.7 493.5 1202.3C493.1 1203.8 492.4 1205.3 491.9 1205.6C491.4 1205.9 491 1207 491 1208C491 1209 490.3 1211.1 489.5 1212.7C488.7 1214.2 486.6 1219.5 484.9 1224.5C483.2 1229.4 481.2 1234.8 480.5 1236.5C478.3 1241.7 474.3 1252.9 468.5 1269.9C465.5 1279 462.4 1287 461.8 1287.7C460.3 1289.5 196 1289.7 196 1287.8C196 1287.2 197.1 1285.2 198.5 1283.4C199.9 1281.6 201 1279.8 201 1279.5C201 1279.1 202.4 1277.1 204 1275C205.7 1272.9 207 1270.8 207 1270.2C207 1269.6 207.3 1269 207.8 1268.8C208.3 1268.6 243.5 1216.6 247.5 1210.1C248.1 1209.2 248.7 1208.3 249 1208C249.3 1207.7 250 1206.7 250.5 1205.8C251.1 1204.8 276.5 1166.8 307 1121.3C415.4 959.3 424.5 945.8 425.5 944.2C426.1 943.3 427.7 940.9 429.3 938.9C430.8 936.9 432 934.9 432 934.5C432 934.1 433.4 932.1 435 930C436.7 927.9 438 925.9 438 925.5C438 925.1 439.4 923.1 441 921C442.7 918.9 444 916.9 444 916.5C444 916.1 445.4 914.1 447 912C448.7 909.9 450 907.9 450 907.5C450 907.1 451.2 905.1 452.8 903.1C454.3 901.1 456 898.7 456.5 897.8C457.1 896.9 464.7 885.5 473.5 872.5C482.3 859.5 490 848.1 490.5 847.1C491.1 846.2 492.6 843.9 494 842C495.4 840.1 497 837.8 497.5 836.9C498.1 835.9 501.2 831.2 504.4 826.3C526.2 793.7 539 774.6 563.5 738C578.8 715.2 608.1 671.5 628.5 641C648.9 610.5 669.1 580.4 673.3 574.1C677.5 567.9 681 562.6 681 562.3C681 562 682.4 560.1 684 558C685.7 555.9 687 553.9 687 553.5C687 553.1 688.4 551.1 690 549C691.7 546.9 693 544.9 693 544.5C693 544.1 694.4 542.1 696 540C697.7 537.9 699 535.9 699 535.5C699 535.1 700.2 533.1 701.8 531.1C703.3 529.1 705 526.7 705.5 525.8C706.1 524.9 711 517.6 716.5 509.5C722 501.4 727 494.1 727.5 493.2C728.1 492.2 729.7 489.9 731.3 487.9C732.8 485.9 734 483.9 734 483.5C734 483.1 735.4 481.1 737 479C738.7 476.9 740 474.9 740 474.5C740 474.1 741.2 472.1 742.8 470.1C744.3 468.1 746 465.7 746.5 464.8C747.1 463.9 750.2 459.2 753.5 454.4C756.8 449.6 759.7 445.1 760 444.6C760.9 442.7 787.2 403.6 790.2 399.9C791.7 397.9 793 396 793 395.7C793 395.4 803.6 379.2 816.7 359.8C829.7 340.4 855.7 301.5 874.5 273.5C893.3 245.4 913.5 215.4 919.3 206.6C925.2 197.9 930 190.5 930 190.3C930 190 931.4 188.1 933 186C934.7 183.9 936 181.9 936 181.5C936 181.1 937.4 179.1 939 177C940.7 174.9 942 172.9 942 172.5C942 172.1 943.4 170.1 945 168C946.7 165.9 948 163.9 948 163.5C948 163.1 949.4 161.1 951 159C952.7 156.9 954 154.9 954 154.5C954 154.1 955.4 152.1 957 150C958.7 147.9 960 145.8 960 145.2C960 144.6 960.3 144 960.8 143.8C961.2 143.6 963.3 140.8 965.5 137.5C967.7 134.2 969.7 131.3 970 131C971 130 977 120.9 977 120.4C977 120 978.4 118.1 980 116C981.7 113.9 983 111.9 983 111.5C983 111.1 984.4 109.1 986 107C987.7 104.9 989 102.9 989 102.5C989 102.1 990.4 100.1 992 98C993.7 95.9 995 93.8 995 93.2C995 92.6 995.3 92 995.8 91.8C996.9 91.3 1001 85.2 1001 84C1001 83.5 1001.4 83 1001.9 83C1002.4 83 1003.1 81.8 1003.4 80.4C1004.3 77.1 1007.7 77.5 1009.9 81.2Z" fill="#1A3258"/>
<path d="M1356 515.2C1356 515.9 1356.5 519.4 1357 523C1357.5 526.6 1358 532.6 1358.1 536.5C1358.1 540.3 1358.8 550.2 1359.5 558.5C1362.2 588.3 1363 603.8 1363 623C1363 649.2 1361.7 671.3 1358 708C1356.5 722.2 1352.1 752.7 1349.6 765.5C1348.7 769.9 1347.5 776.4 1347 779.9C1346.4 783.4 1345.5 787.1 1345 788.1C1344.4 789.1 1344 791 1344 792.4C1344 793.9 1343.3 797.8 1342.4 801.3C1341.6 804.7 1340.2 810.2 1339.4 813.5C1338.6 816.8 1337.3 821.7 1336.5 824.5C1335.8 827.2 1334.4 832.4 1333.5 836C1332.6 839.6 1331.2 844 1330.4 845.8C1329.6 847.6 1329 849.7 1329 850.4C1329 852.6 1315.9 891.8 1312.5 899.5C1311.8 901.1 1310.4 904.7 1309.5 907.5C1308.5 910.2 1307.3 912.9 1306.8 913.5C1306.4 914 1306 915 1306 915.7C1306 916.3 1304.6 920 1302.9 923.7C1301.2 927.4 1299.2 931.8 1298.5 933.5C1292.6 946.8 1275.1 981.2 1268.4 992.5C1266.8 995.2 1265.1 998.2 1264.5 999.2C1264 1000.2 1260.9 1005.1 1257.7 1010.2C1254.5 1015.3 1251.4 1020.4 1250.7 1021.5C1250 1022.6 1248.3 1025.1 1246.8 1027.1C1245.2 1029.1 1244 1031.1 1244 1031.5C1244 1031.8 1242.7 1033.8 1241.2 1035.8C1239.6 1037.8 1233.7 1045.6 1228.2 1053.1C1222.6 1060.6 1215.9 1069.2 1213.2 1072.2C1210.6 1075.2 1206.7 1079.9 1204.6 1082.6C1202.4 1085.3 1190.9 1097.3 1179.1 1109.4C1152.1 1136.7 1126.5 1158.9 1098.6 1179.2C1091.8 1184.2 1060.6 1205 1055 1208.4C1052.5 1209.9 1049.8 1211.5 1049 1212C1041.5 1216.7 1033.8 1221 1033.1 1221C1032.6 1221 1031.5 1221.6 1030.8 1222.3C1030.1 1223 1027.7 1224.5 1025.5 1225.7C1023.3 1226.8 1018.8 1229.2 1015.5 1231C1008.9 1234.7 989.5 1244.3 984 1246.8C982.1 1247.6 979.8 1248.7 979 1249.2C978.2 1249.6 976.8 1250.3 976 1250.6C975.2 1251 971.7 1252.5 968.2 1254.1C964.8 1255.7 961.6 1257 961.2 1257C960.7 1257 957.6 1258.3 954.2 1260C950.8 1261.6 947.4 1263 946.7 1263C946 1263 945 1263.4 944.5 1263.8C943.9 1264.3 941.5 1265.4 939 1266.3C936.5 1267.2 933.2 1268.4 931.5 1269.1C916.6 1275 903.1 1279.2 887.5 1283.1C885.3 1283.6 882.4 1284.4 881 1284.9C877.7 1286 869.1 1288.5 861 1290.6C854.5 1292.2 848.8 1293.8 839.5 1296.5C827.9 1299.8 824.2 1300.9 818 1302.5C814.4 1303.4 808.4 1305.1 804.5 1306.2C797.2 1308.4 788.3 1310.7 784 1311.6C782.6 1311.9 777.2 1313.4 772 1315C766.8 1316.5 759.6 1318.6 756 1319.5C747.9 1321.7 740.4 1323.8 736.4 1325C734.8 1325.6 731.4 1326.4 728.9 1326.9C720.5 1328.8 714.9 1330.6 715 1331.6C715 1332.1 716.7 1332.4 718.8 1332.3C720.8 1332.1 986.7 1331.7 1309.5 1331.4C1632.4 1331.1 1896.8 1330.5 1897.3 1330.1C1897.7 1329.7 1888.9 1315.7 1877.8 1298.9C1866.7 1282.2 1838.2 1239.2 1814.5 1203.5C1753.5 1111.5 1751.5 1108.6 1751.1 1107.5C1750.9 1106.9 1749.4 1104.9 1747.9 1102.9C1746.3 1100.9 1745 1098.9 1745 1098.5C1745 1098.1 1743.7 1096.1 1742 1094C1740.4 1091.9 1739 1089.9 1739 1089.5C1739 1089.1 1737.7 1087.1 1736 1085C1734.4 1082.9 1733 1080.9 1733 1080.5C1733 1080.1 1731.7 1078.1 1730.1 1076.1C1728.6 1074.1 1727.1 1072 1726.9 1071.5C1726.5 1070.5 1701.5 1032.8 1634.1 931.5C1616.2 904.6 1601.3 882.1 1601.1 881.6C1600.9 881 1596.9 875 1592.3 868.2C1587.8 861.4 1584 855.6 1584 855.3C1584 855 1582.7 853.1 1581 851C1579.4 848.9 1578 846.9 1578 846.5C1578 846.1 1576.7 844.1 1575 842C1573.4 839.9 1572 837.9 1572 837.5C1572 837.1 1570.7 835.1 1569 833C1567.4 830.9 1566 828.8 1566 828.2C1566 827.6 1565.7 827 1565.2 826.8C1564.8 826.6 1562.8 824 1560.9 821C1558.9 818 1540.2 789.8 1519.4 758.5C1498.5 727.1 1481.3 701 1481.1 700.5C1480.9 699.9 1479.4 697.9 1477.9 695.9C1476.3 693.9 1475 691.7 1475 691.1C1475 690.5 1474.6 690 1474 690C1473.5 690 1473 689.6 1473 689.1C1473 688.5 1463.4 673.8 1451.8 656.3C1431.6 626.1 1412.7 597.5 1410.5 593.8C1410 592.9 1398.8 576.1 1385.6 556.3C1372.5 536.6 1360.8 519 1359.6 517.3C1357.4 513.9 1356 513.1 1356 515.2ZM1408 667.2C1408 667.8 1410.4 672 1413.4 676.4C1416.3 680.9 1427.2 697.3 1437.6 712.9C1448 728.5 1457 742 1457.5 742.9C1458.1 743.8 1459.7 746.1 1461.3 748.1C1462.8 750.1 1464 752.1 1464 752.5C1464 752.9 1465.4 754.9 1467 757C1468.7 759.1 1470 761.1 1470 761.4C1470 762.4 1491.3 794.5 1492.2 794.8C1492.6 795 1493 795.6 1493 796.1C1493 797.2 1497.2 803.3 1498.3 803.8C1498.7 804 1499 804.6 1499 805.1C1499 806.2 1503.2 812.3 1504.3 812.8C1504.7 813 1505 813.6 1505 814.2C1505 814.8 1506.3 816.9 1507.8 818.9C1509.4 820.9 1511 823.2 1511.3 824C1512.2 825.9 1514 828.6 1521.5 839.7C1524.8 844.5 1527.7 848.9 1527.9 849.5C1528.1 850 1529.6 852.1 1531.1 854.1C1532.7 856.1 1534 858.1 1534 858.5C1534 858.9 1535.2 860.9 1536.8 862.9C1538.3 864.9 1540 867.3 1540.5 868.2C1541.1 869.1 1544 873.6 1547.1 878.2C1550.2 882.8 1563 902 1575.5 921C1588 940 1601.2 960 1604.9 965.5C1608.5 971 1611.8 975.6 1612.3 975.8C1612.7 976 1613 976.6 1613 977.1C1613 978.2 1617.2 984.3 1618.3 984.8C1618.7 985 1619 985.6 1619 986.2C1619 986.8 1620.4 988.9 1622 991C1623.7 993.1 1625 995.1 1625 995.5C1625 995.9 1626.4 997.9 1628 1000C1629.7 1002.1 1631 1004.1 1631 1004.5C1631 1004.9 1632.4 1006.9 1634 1009C1635.7 1011.1 1637 1013.1 1637 1013.4C1637 1013.8 1637.8 1015.3 1638.9 1016.8C1639.9 1018.3 1644.7 1025.6 1649.6 1033C1654.4 1040.4 1658.7 1046.6 1659.2 1046.8C1659.6 1047 1660 1047.6 1660 1048.2C1660 1048.8 1661.4 1050.9 1663 1053C1664.7 1055.1 1666 1057.1 1666 1057.5C1666 1057.9 1667.4 1059.9 1669 1062C1670.7 1064.1 1672 1066.1 1672 1066.5C1672 1066.9 1673.3 1068.9 1674.9 1070.9C1676.4 1072.9 1677.9 1075 1678.1 1075.5C1678.3 1076.1 1687.8 1090.5 1699.1 1107.5C1710.4 1124.6 1731.3 1156 1745.5 1177.5C1759.7 1198.9 1772.9 1218.9 1774.9 1221.8C1776.9 1224.7 1779 1227.8 1779.5 1228.8C1780.1 1229.7 1781.7 1232.1 1783.3 1234.1C1784.8 1236.1 1786 1238.1 1786 1238.5C1786 1238.9 1787.4 1240.9 1789 1243C1790.7 1245.1 1792 1247.1 1792 1247.5C1792 1247.9 1793.4 1249.9 1795 1252C1796.7 1254.1 1798 1256.1 1798 1256.5C1798 1256.9 1799.4 1258.9 1801 1261C1802.7 1263.1 1804 1265.1 1804 1265.5C1804 1265.9 1805.4 1267.9 1807 1270C1808.7 1272.1 1810 1274 1810 1274.3C1810 1274.6 1811.8 1277.6 1814 1280.9C1816.2 1284.2 1818 1287.4 1818 1288C1818 1288.7 1693.6 1289 1409 1289C1082.5 1289 1000 1288.7 1000 1287.7C1000 1287.1 1002 1285.7 1004.3 1284.6C1006.6 1283.6 1014.5 1279.8 1021.8 1276.1C1029 1272.5 1036.2 1268.9 1037.8 1268.1C1039.3 1267.4 1044.6 1264.4 1049.7 1261.4C1054.7 1258.4 1059.3 1256 1059.9 1256C1060.5 1256 1061 1255.5 1061 1255C1061 1254.4 1061.6 1254 1062.3 1254C1063 1254 1066.6 1252 1070.3 1249.6C1073.9 1247.2 1077.5 1244.9 1078.2 1244.6C1083 1242.1 1105.2 1227.6 1112.2 1222.3C1115.3 1219.9 1118.1 1218 1118.4 1218C1119.1 1218 1131.4 1209 1138 1203.6C1140.5 1201.6 1143 1199.6 1143.5 1199.2C1176.6 1174.3 1222.6 1129.2 1252.1 1092.5C1266.9 1074.1 1299 1028.2 1299 1025.5C1299 1025 1299.6 1023.9 1300.4 1023.1C1301.1 1022.2 1303.3 1018.6 1305.2 1015C1307.2 1011.4 1310.2 1006 1311.9 1003C1315.1 997.4 1334.1 959.1 1337.8 951C1342.1 941.3 1343 939.3 1345 934C1346.1 931 1347.4 927.6 1347.9 926.5C1348.4 925.4 1349.8 922 1351 919C1352.1 916 1353.5 912.6 1354 911.5C1354.4 910.4 1355.1 908.6 1355.4 907.5C1355.9 905.5 1356.7 903.2 1361 892C1362.2 889 1363.7 884.2 1364.5 881.5C1365.2 878.7 1366.6 874.4 1367.5 872C1369.3 867 1370.2 864.2 1372.5 855.5C1376.1 842.2 1376.9 839.3 1378.5 834C1379.4 831 1380.7 825.6 1381.5 822C1382.3 818.4 1383.6 812.6 1384.5 809C1388.5 792 1394.4 760.4 1396.1 747.5C1396.7 743.1 1397.4 738.4 1397.6 737C1397.9 735.6 1398.5 731.1 1399.1 727C1399.6 722.9 1400.2 717.7 1400.5 715.5C1401.5 708 1401.8 705.5 1402.6 696C1403.8 681.4 1403.9 678.8 1403.9 674.2C1403.9 671.8 1404.2 669 1404.5 667.9C1405.2 665.8 1408 665.2 1408 667.2Z" fill="#1A3258"/>
<mask id="path-9-inside-1_161_23" fill="white">
<path d="M1321 582.6C1317.3 588.4 1310.5 595.9 1302.8 602.3C1296.7 607.5 1279.8 619 1278.3 619C1277.6 619 1277 619.3 1277 619.8C1277 620.2 1276.1 621 1275.1 621.5C1274 622.1 1270.7 623.7 1267.6 625.3C1264.6 626.8 1261.8 628.5 1261.5 629C1261.2 629.6 1260.1 630 1259.1 630C1258.1 630 1256.7 630.7 1256 631.5C1255.3 632.3 1254 633 1253 633C1252 633 1250.7 633.7 1250 634.5C1249.3 635.3 1248 636 1247 636C1246 636 1244.7 636.7 1244 637.5C1243.3 638.3 1241.9 639 1240.9 639C1240 639 1238.5 639.7 1237.6 640.5C1236.8 641.3 1235.3 642 1234.2 642C1233.1 642 1231.7 642.7 1231 643.5C1230.3 644.3 1228.7 645 1227.5 645C1226.3 645 1224.7 645.7 1224 646.5C1223.3 647.3 1222 648 1221.1 648C1220.1 648 1218.5 648.7 1217.4 649.5C1216.4 650.3 1214.5 651 1213.4 651C1212.2 651 1210.7 651.7 1210 652.5C1209.3 653.3 1207.8 654 1206.6 654C1205.5 654 1203.6 654.7 1202.6 655.5C1201.5 656.3 1199.6 657 1198.3 657C1197 657 1196 657.4 1196 657.8C1196 658.2 1193.4 659.4 1190.3 660.5C1187.1 661.5 1183.6 662.9 1182.5 663.5C1181.4 664.2 1177.4 665.7 1173.7 667C1170 668.3 1166.7 669.7 1166.4 670.1C1166.1 670.6 1165 671 1163.8 671C1162.7 671 1160.6 671.6 1159.2 672.3C1157.7 673.1 1155 674.4 1153.2 675.3C1151.3 676.2 1149.1 677 1148.1 677C1147.2 677 1145.5 677.7 1144.4 678.5C1143.4 679.3 1141.7 680 1140.8 680C1139.1 680 1134.1 681.9 1128.7 684.6C1127.1 685.4 1125.2 686 1124.3 686C1123.5 686 1121.6 686.6 1120.2 687.4C1115.5 689.9 1110.2 692 1108.8 692C1108 692 1106.5 692.7 1105.4 693.5C1104.4 694.3 1102.8 695 1101.9 695C1101 695 1098.9 695.7 1097.4 696.5C1095.8 697.3 1093.7 698 1092.8 698C1091.9 698 1090.9 698.3 1090.7 698.8C1090.4 699.2 1087 700.6 1083.1 702C1079.2 703.3 1076 704.8 1076 705.2C1076 705.6 1075.3 706 1074.4 706C1072.9 706 1070.1 707.1 1062.5 710.5C1060.9 711.3 1058.5 712.1 1057.3 712.5C1056 712.8 1055 713.6 1055 714.1C1055 714.6 1053.7 715 1052.1 715C1050.5 715 1048.7 715.7 1048 716.5C1047.3 717.3 1046 718 1045.1 718C1044.1 718 1042.5 718.7 1041.4 719.5C1040.4 720.3 1038.5 721 1037.4 721C1036.2 721 1034.7 721.7 1034 722.5C1033.3 723.3 1032 724 1031.1 724C1030.2 724 1028.6 724.6 1027.5 725.4C1026.4 726.1 1024.3 727 1022.8 727.4C1021.2 727.7 1020 728.5 1020 729C1020 729.6 1018.9 730 1017.6 730C1016.3 730 1014.7 730.7 1014 731.5C1013.3 732.3 1012.3 733 1011.7 733C1010.8 733 1007.5 734.4 994 740.8C992.1 741.8 990.3 742.8 990 743.2C989.7 743.5 988.2 744.2 986.7 744.5C985.2 744.9 984 745.6 984 746C984 746.5 982.7 747.1 981 747.5C979.4 747.9 978 748.5 978 749C978 749.5 976.7 750.1 975 750.5C973.4 750.9 972 751.6 972 752.1C972 752.6 971.2 753 970.1 753C969.1 753 967.7 753.6 967.1 754.4C966.4 755.2 964.8 756.1 963.5 756.4C962.1 756.8 961 757.5 961 758C961 758.6 960.1 759 959.1 759C958 759 956.9 759.4 956.5 759.9C956.2 760.5 953.6 762 950.7 763.5C947.9 764.9 944.2 766.9 942.5 768C940.9 769.1 938.6 770.4 937.5 771C936.4 771.6 934.2 772.9 932.5 774C930.9 775 927.6 776.9 925.3 778.1C922.9 779.4 921 780.7 921 781.2C921 781.6 920.4 782 919.6 782C918.8 782 917.5 782.6 916.8 783.2C916.1 783.9 912.8 786.3 909.5 788.5C906.2 790.7 903.4 792.8 903.2 793.2C903 793.7 902.4 794 901.9 794C900.8 794 894.7 798.2 894.2 799.2C894 799.7 893.2 800 892.4 800C891.6 800 890.7 800.7 890.4 801.5C890 802.3 889.1 803 888.4 803C887.6 803 886.7 803.7 886.4 804.5C886 805.3 885.2 806 884.4 806C883.7 806 882.7 806.6 882.3 807.2C881.9 807.9 880.8 808.9 879.9 809.5C877.4 811 866.2 820.1 858.5 826.8C843.6 839.8 781.3 900.8 768.7 914.9C766.6 917.2 761.2 923.2 756.7 928.3C752.2 933.3 747.8 938.2 747 939.1C746.2 940 744.8 941.6 744 942.6C743.1 943.6 739.5 947.9 735.9 952C726.7 962.8 722.4 968 714 978.9C712.6 980.7 711 982.8 710.3 983.5C709.7 984.2 705.5 989.6 701.1 995.6C696.6 1001.6 692 1007.8 690.8 1009.4C689.5 1011 688.3 1012.8 688.1 1013.4C687.9 1014 686.4 1016.1 684.9 1018.1C683.3 1020.1 682 1022.1 682 1022.4C682 1022.7 681.3 1023.8 680.4 1024.7C677.6 1027.8 661 1053.4 661 1054.7C661 1055.4 660.6 1056 660 1056C659.5 1056 659 1056.4 659 1056.9C659 1057.5 657.7 1059.8 656.1 1062.2C652.6 1067.4 648.4 1074.7 647.1 1077.7C646.6 1078.8 645.6 1080.1 645.1 1080.5C644.5 1080.8 644 1082 644 1083.1C644 1084.1 643.5 1085 643 1085C642.4 1085 641.5 1086 641 1087.2C640.4 1088.5 639.6 1090.2 639.2 1091C638.7 1091.8 637.7 1093.6 637 1095C632.2 1104.2 630.8 1106.6 629.9 1107.5C629.4 1108 629 1109 629 1109.8C629 1110.5 628.3 1111.8 627.5 1112.6C626.7 1113.5 626 1115 626 1116.1C626 1117.1 625.6 1118 625.2 1118C624.7 1118 623.3 1120.5 621.9 1123.5C620.6 1126.5 619.2 1129 618.8 1129C618.5 1129 617.9 1130.4 617.5 1132C617.1 1133.7 616.5 1135 616 1135C615.5 1135 614.9 1136.4 614.5 1138C614.1 1139.6 613.4 1141 612.9 1141C612.4 1141 612 1142.1 612 1143.4C612 1144.7 611.3 1146.3 610.5 1147C609.7 1147.7 609 1149 609 1150C609 1151 608.3 1152.3 607.5 1153C606.7 1153.7 606 1155.3 606 1156.5C606 1157.8 605.6 1159 605.2 1159.2C604.1 1159.6 600 1167.7 600 1169.4C600 1170.1 599.3 1171.3 598.5 1172C597.7 1172.7 597 1174.3 597 1175.5C597 1176.7 596.3 1178.3 595.5 1179C594.7 1179.7 594 1181 594 1182C594 1182.9 592.7 1186.2 591 1189.3C589.4 1192.4 588 1195.5 588 1196.2C588 1196.9 586.6 1200.2 585 1203.5C583.4 1206.8 582 1210 582 1210.6C582 1211.6 579.9 1216.5 577.9 1220.2C577.4 1221.2 577 1222.5 577 1223C577 1224.1 573.8 1231.9 572.1 1235C571.6 1235.9 570.9 1238 570.6 1239.8C570.2 1241.5 569.4 1243.2 568.9 1243.5C568.4 1243.9 568 1245 568 1246C568 1247 567.3 1249.2 566.5 1250.9C565.7 1252.6 564.3 1255.4 563.5 1257.1C562.7 1258.8 562 1260.9 562 1261.8C562 1263.2 557.8 1272.9 554.4 1279.2C553.6 1280.6 553 1282.5 553 1283.4C553 1284.3 552.6 1285 552 1285C551.5 1285 550.7 1286.2 550.4 1287.7C550 1289.3 549 1291 548.2 1291.6C547.3 1292.2 546.9 1293.4 547.3 1294.2C547.7 1295.5 548.7 1295.6 552.2 1294.9C554.6 1294.5 560.1 1294.1 564.5 1294C568.9 1294 577.2 1293.3 583 1292.5C588.8 1291.7 598.7 1291 605 1291C611.3 1291 623.3 1290.5 631.5 1290C639.8 1289.4 652.1 1288.7 659 1288.5C673.4 1287.9 681.8 1287.2 682.8 1286.6C683.2 1286.4 688.9 1285.9 695.5 1285.5C702.1 1285.2 709.3 1284.5 711.5 1284C713.7 1283.5 718.9 1282.9 723 1282.6C727.1 1282.2 732.8 1281.5 735.5 1281C738.3 1280.5 743 1279.8 746 1279.5C755.7 1278.6 774 1275.6 786 1272.9C788.5 1272.3 793.3 1271.5 796.7 1271C800.2 1270.5 803.9 1269.6 804.9 1269C806 1268.5 808.2 1268 809.8 1268C811.4 1268 815 1267.4 817.6 1266.6C824.2 1264.7 830.7 1263 835.5 1262C841.4 1260.7 848 1258.9 852.5 1257.4C854.8 1256.6 857.7 1256 859.1 1256C860.5 1256 862.1 1255.5 862.7 1254.9C863.3 1254.3 865.6 1253.4 867.7 1252.9C875.1 1251.3 880.5 1249.7 883.2 1248.4C884.6 1247.6 886.5 1247 887.4 1247C888.2 1247 890.4 1246.4 892.2 1245.6C896.6 1243.8 902 1242 904.6 1241.4C905.8 1241.2 908.1 1240.3 909.6 1239.5C911.2 1238.7 913.3 1238 914.2 1238C915.1 1238 916.2 1237.5 916.5 1237C916.8 1236.4 917.9 1236 918.8 1236C919.7 1236 921.8 1235.3 923.4 1234.5C924.9 1233.7 927 1233 928 1233C929 1233 930.5 1232.3 931.4 1231.5C932.2 1230.7 934 1230 935.3 1230C936.7 1230 938.3 1229.4 938.9 1228.6C939.6 1227.8 941.6 1226.9 943.5 1226.6C945.4 1226.2 947 1225.5 947 1225C947 1224.4 948 1224 949.3 1224C950.5 1224 952.4 1223.3 953.4 1222.5C954.5 1221.7 956.1 1221 957.1 1221C958 1221 959.3 1220.3 960 1219.5C960.7 1218.7 962.1 1218 963.1 1218C964 1218 965.5 1217.3 966.4 1216.5C967.2 1215.7 968.4 1215 969 1215C970.1 1215 973.8 1213.3 978 1210.9C978.8 1210.4 980.2 1209.7 981 1209.4C981.8 1209.1 983.2 1208.4 984 1207.9C984.8 1207.4 986.2 1206.7 987 1206.4C987.8 1206.1 989.2 1205.4 990 1204.9C990.8 1204.4 992.2 1203.7 993 1203.4C993.8 1203.1 995.4 1202.4 996.5 1201.8C997.6 1201.2 1001.4 1199.1 1005 1197.3C1008.6 1195.4 1012.9 1193 1014.5 1191.9C1016.2 1190.9 1018.7 1189.5 1020.3 1188.9C1021.8 1188.3 1023 1187.4 1023 1187C1023 1186.6 1024.1 1185.9 1025.5 1185.6C1026.9 1185.2 1028 1184.5 1028 1184C1028 1183.4 1028.6 1183 1029.4 1183C1030.2 1183 1031.5 1182.4 1032.2 1181.7C1032.9 1181 1034.2 1180.1 1035 1179.7C1035.8 1179.3 1037.9 1178.1 1039.5 1177C1041.2 1175.9 1043.2 1174.7 1044 1174.3C1044.8 1174 1047.1 1172.4 1049.1 1170.8C1051.1 1169.3 1053.1 1168 1053.5 1168C1053.9 1168 1055.9 1166.6 1058 1165C1060.1 1163.3 1062.3 1162 1062.9 1162C1063.5 1162 1064 1161.5 1064 1161C1064 1160.4 1064.5 1160 1065.2 1160C1065.8 1160 1067 1159.3 1067.9 1158.5C1068.8 1157.7 1074.2 1153.6 1080 1149.3C1085.8 1145.1 1091.3 1141 1092.2 1140.1C1093.1 1139.2 1094.5 1138 1095.2 1137.5C1095.9 1136.9 1100.1 1133.6 1104.5 1130C1134.1 1106 1172.8 1066.7 1193.7 1039.3C1195.7 1036.7 1198.1 1033.7 1199.1 1032.6C1200.1 1031.6 1202.2 1028.8 1203.7 1026.6C1205.3 1024.3 1207.5 1021.4 1208.8 1020C1210 1018.6 1211 1017.2 1211 1016.8C1211 1016.4 1212.9 1013.4 1215.3 1010.3C1219.3 1005 1226 995.3 1228.5 991.2C1230.5 987.9 1234.5 981.4 1235.7 979.5C1236.4 978.4 1237.2 976.8 1237.6 976C1238 975.2 1240 971.8 1242 968.5C1244 965.2 1246 961.8 1246.4 961C1246.8 960.2 1248.6 956.8 1250.5 953.5C1252.3 950.2 1255.4 944.1 1257.5 940C1259.5 935.9 1261.8 931.3 1262.6 929.8C1263.4 928.4 1264 926.5 1264 925.6C1264 924.7 1264.4 924 1264.9 924C1265.4 924 1266.2 923 1266.5 921.7C1266.9 920.5 1268.5 916.7 1270.1 913.2C1271.7 909.8 1273 906.6 1273 906.1C1273 905.6 1273.8 903.7 1274.7 901.8C1275.6 900 1276.9 897.3 1277.7 895.8C1278.4 894.4 1279 892.2 1279 891.1C1279 889.9 1279.4 889 1279.9 889C1280.4 889 1281.2 887.3 1281.8 885.2C1282.3 883.2 1284.2 877.7 1286 873C1289.3 864.2 1290.1 861.6 1292.1 854C1292.7 851.5 1293.9 848.3 1294.6 846.8C1295.4 845.4 1296 843.1 1296 841.8C1296 840.6 1296.7 838.2 1297.5 836.6C1298.3 835.1 1299 832.7 1299 831.5C1299 830.3 1299.7 827.9 1300.5 826.4C1301.3 824.8 1302 822.1 1302 820.4C1302 818.6 1302.7 815.9 1303.5 814.4C1304.3 812.8 1305 809.9 1305 808C1305.1 806.1 1305.7 803.4 1306.5 802C1307.3 800.6 1307.9 797.7 1308 795.4C1308 793.2 1308.6 790 1309.4 788.4C1310.2 786.8 1311 783.2 1311.1 780.5C1311.3 777.7 1312 774.1 1312.7 772.3C1313.4 770.5 1314 767.5 1314 765.6C1314 763.7 1314.7 759.5 1315.5 756.3C1316.3 753.2 1317 748 1317 744.8C1317 741.7 1317.4 738.9 1317.9 738.6C1318.9 737.9 1320 730.1 1320.1 721.5C1320.2 718.2 1320.6 715 1321 714.5C1321.9 713.4 1323.2 697.9 1323.2 688.7C1323.2 685.6 1323.6 682.7 1324.2 682.4C1324.7 682.1 1325 679.5 1324.9 676.7C1324.9 673.8 1325 666.5 1325.3 660.5C1326.4 638.4 1326.4 577 1325.3 577C1324.8 577.1 1322.9 579.6 1321 582.6Z"/>
</mask>
<path d="M1321 582.6C1317.3 588.4 1310.5 595.9 1302.8 602.3C1296.7 607.5 1279.8 619 1278.3 619C1277.6 619 1277 619.3 1277 619.8C1277 620.2 1276.1 621 1275.1 621.5C1274 622.1 1270.7 623.7 1267.6 625.3C1264.6 626.8 1261.8 628.5 1261.5 629C1261.2 629.6 1260.1 630 1259.1 630C1258.1 630 1256.7 630.7 1256 631.5C1255.3 632.3 1254 633 1253 633C1252 633 1250.7 633.7 1250 634.5C1249.3 635.3 1248 636 1247 636C1246 636 1244.7 636.7 1244 637.5C1243.3 638.3 1241.9 639 1240.9 639C1240 639 1238.5 639.7 1237.6 640.5C1236.8 641.3 1235.3 642 1234.2 642C1233.1 642 1231.7 642.7 1231 643.5C1230.3 644.3 1228.7 645 1227.5 645C1226.3 645 1224.7 645.7 1224 646.5C1223.3 647.3 1222 648 1221.1 648C1220.1 648 1218.5 648.7 1217.4 649.5C1216.4 650.3 1214.5 651 1213.4 651C1212.2 651 1210.7 651.7 1210 652.5C1209.3 653.3 1207.8 654 1206.6 654C1205.5 654 1203.6 654.7 1202.6 655.5C1201.5 656.3 1199.6 657 1198.3 657C1197 657 1196 657.4 1196 657.8C1196 658.2 1193.4 659.4 1190.3 660.5C1187.1 661.5 1183.6 662.9 1182.5 663.5C1181.4 664.2 1177.4 665.7 1173.7 667C1170 668.3 1166.7 669.7 1166.4 670.1C1166.1 670.6 1165 671 1163.8 671C1162.7 671 1160.6 671.6 1159.2 672.3C1157.7 673.1 1155 674.4 1153.2 675.3C1151.3 676.2 1149.1 677 1148.1 677C1147.2 677 1145.5 677.7 1144.4 678.5C1143.4 679.3 1141.7 680 1140.8 680C1139.1 680 1134.1 681.9 1128.7 684.6C1127.1 685.4 1125.2 686 1124.3 686C1123.5 686 1121.6 686.6 1120.2 687.4C1115.5 689.9 1110.2 692 1108.8 692C1108 692 1106.5 692.7 1105.4 693.5C1104.4 694.3 1102.8 695 1101.9 695C1101 695 1098.9 695.7 1097.4 696.5C1095.8 697.3 1093.7 698 1092.8 698C1091.9 698 1090.9 698.3 1090.7 698.8C1090.4 699.2 1087 700.6 1083.1 702C1079.2 703.3 1076 704.8 1076 705.2C1076 705.6 1075.3 706 1074.4 706C1072.9 706 1070.1 707.1 1062.5 710.5C1060.9 711.3 1058.5 712.1 1057.3 712.5C1056 712.8 1055 713.6 1055 714.1C1055 714.6 1053.7 715 1052.1 715C1050.5 715 1048.7 715.7 1048 716.5C1047.3 717.3 1046 718 1045.1 718C1044.1 718 1042.5 718.7 1041.4 719.5C1040.4 720.3 1038.5 721 1037.4 721C1036.2 721 1034.7 721.7 1034 722.5C1033.3 723.3 1032 724 1031.1 724C1030.2 724 1028.6 724.6 1027.5 725.4C1026.4 726.1 1024.3 727 1022.8 727.4C1021.2 727.7 1020 728.5 1020 729C1020 729.6 1018.9 730 1017.6 730C1016.3 730 1014.7 730.7 1014 731.5C1013.3 732.3 1012.3 733 1011.7 733C1010.8 733 1007.5 734.4 994 740.8C992.1 741.8 990.3 742.8 990 743.2C989.7 743.5 988.2 744.2 986.7 744.5C985.2 744.9 984 745.6 984 746C984 746.5 982.7 747.1 981 747.5C979.4 747.9 978 748.5 978 749C978 749.5 976.7 750.1 975 750.5C973.4 750.9 972 751.6 972 752.1C972 752.6 971.2 753 970.1 753C969.1 753 967.7 753.6 967.1 754.4C966.4 755.2 964.8 756.1 963.5 756.4C962.1 756.8 961 757.5 961 758C961 758.6 960.1 759 959.1 759C958 759 956.9 759.4 956.5 759.9C956.2 760.5 953.6 762 950.7 763.5C947.9 764.9 944.2 766.9 942.5 768C940.9 769.1 938.6 770.4 937.5 771C936.4 771.6 934.2 772.9 932.5 774C930.9 775 927.6 776.9 925.3 778.1C922.9 779.4 921 780.7 921 781.2C921 781.6 920.4 782 919.6 782C918.8 782 917.5 782.6 916.8 783.2C916.1 783.9 912.8 786.3 909.5 788.5C906.2 790.7 903.4 792.8 903.2 793.2C903 793.7 902.4 794 901.9 794C900.8 794 894.7 798.2 894.2 799.2C894 799.7 893.2 800 892.4 800C891.6 800 890.7 800.7 890.4 801.5C890 802.3 889.1 803 888.4 803C887.6 803 886.7 803.7 886.4 804.5C886 805.3 885.2 806 884.4 806C883.7 806 882.7 806.6 882.3 807.2C881.9 807.9 880.8 808.9 879.9 809.5C877.4 811 866.2 820.1 858.5 826.8C843.6 839.8 781.3 900.8 768.7 914.9C766.6 917.2 761.2 923.2 756.7 928.3C752.2 933.3 747.8 938.2 747 939.1C746.2 940 744.8 941.6 744 942.6C743.1 943.6 739.5 947.9 735.9 952C726.7 962.8 722.4 968 714 978.9C712.6 980.7 711 982.8 710.3 983.5C709.7 984.2 705.5 989.6 701.1 995.6C696.6 1001.6 692 1007.8 690.8 1009.4C689.5 1011 688.3 1012.8 688.1 1013.4C687.9 1014 686.4 1016.1 684.9 1018.1C683.3 1020.1 682 1022.1 682 1022.4C682 1022.7 681.3 1023.8 680.4 1024.7C677.6 1027.8 661 1053.4 661 1054.7C661 1055.4 660.6 1056 660 1056C659.5 1056 659 1056.4 659 1056.9C659 1057.5 657.7 1059.8 656.1 1062.2C652.6 1067.4 648.4 1074.7 647.1 1077.7C646.6 1078.8 645.6 1080.1 645.1 1080.5C644.5 1080.8 644 1082 644 1083.1C644 1084.1 643.5 1085 643 1085C642.4 1085 641.5 1086 641 1087.2C640.4 1088.5 639.6 1090.2 639.2 1091C638.7 1091.8 637.7 1093.6 637 1095C632.2 1104.2 630.8 1106.6 629.9 1107.5C629.4 1108 629 1109 629 1109.8C629 1110.5 628.3 1111.8 627.5 1112.6C626.7 1113.5 626 1115 626 1116.1C626 1117.1 625.6 1118 625.2 1118C624.7 1118 623.3 1120.5 621.9 1123.5C620.6 1126.5 619.2 1129 618.8 1129C618.5 1129 617.9 1130.4 617.5 1132C617.1 1133.7 616.5 1135 616 1135C615.5 1135 614.9 1136.4 614.5 1138C614.1 1139.6 613.4 1141 612.9 1141C612.4 1141 612 1142.1 612 1143.4C612 1144.7 611.3 1146.3 610.5 1147C609.7 1147.7 609 1149 609 1150C609 1151 608.3 1152.3 607.5 1153C606.7 1153.7 606 1155.3 606 1156.5C606 1157.8 605.6 1159 605.2 1159.2C604.1 1159.6 600 1167.7 600 1169.4C600 1170.1 599.3 1171.3 598.5 1172C597.7 1172.7 597 1174.3 597 1175.5C597 1176.7 596.3 1178.3 595.5 1179C594.7 1179.7 594 1181 594 1182C594 1182.9 592.7 1186.2 591 1189.3C589.4 1192.4 588 1195.5 588 1196.2C588 1196.9 586.6 1200.2 585 1203.5C583.4 1206.8 582 1210 582 1210.6C582 1211.6 579.9 1216.5 577.9 1220.2C577.4 1221.2 577 1222.5 577 1223C577 1224.1 573.8 1231.9 572.1 1235C571.6 1235.9 570.9 1238 570.6 1239.8C570.2 1241.5 569.4 1243.2 568.9 1243.5C568.4 1243.9 568 1245 568 1246C568 1247 567.3 1249.2 566.5 1250.9C565.7 1252.6 564.3 1255.4 563.5 1257.1C562.7 1258.8 562 1260.9 562 1261.8C562 1263.2 557.8 1272.9 554.4 1279.2C553.6 1280.6 553 1282.5 553 1283.4C553 1284.3 552.6 1285 552 1285C551.5 1285 550.7 1286.2 550.4 1287.7C550 1289.3 549 1291 548.2 1291.6C547.3 1292.2 546.9 1293.4 547.3 1294.2C547.7 1295.5 548.7 1295.6 552.2 1294.9C554.6 1294.5 560.1 1294.1 564.5 1294C568.9 1294 577.2 1293.3 583 1292.5C588.8 1291.7 598.7 1291 605 1291C611.3 1291 623.3 1290.5 631.5 1290C639.8 1289.4 652.1 1288.7 659 1288.5C673.4 1287.9 681.8 1287.2 682.8 1286.6C683.2 1286.4 688.9 1285.9 695.5 1285.5C702.1 1285.2 709.3 1284.5 711.5 1284C713.7 1283.5 718.9 1282.9 723 1282.6C727.1 1282.2 732.8 1281.5 735.5 1281C738.3 1280.5 743 1279.8 746 1279.5C755.7 1278.6 774 1275.6 786 1272.9C788.5 1272.3 793.3 1271.5 796.7 1271C800.2 1270.5 803.9 1269.6 804.9 1269C806 1268.5 808.2 1268 809.8 1268C811.4 1268 815 1267.4 817.6 1266.6C824.2 1264.7 830.7 1263 835.5 1262C841.4 1260.7 848 1258.9 852.5 1257.4C854.8 1256.6 857.7 1256 859.1 1256C860.5 1256 862.1 1255.5 862.7 1254.9C863.3 1254.3 865.6 1253.4 867.7 1252.9C875.1 1251.3 880.5 1249.7 883.2 1248.4C884.6 1247.6 886.5 1247 887.4 1247C888.2 1247 890.4 1246.4 892.2 1245.6C896.6 1243.8 902 1242 904.6 1241.4C905.8 1241.2 908.1 1240.3 909.6 1239.5C911.2 1238.7 913.3 1238 914.2 1238C915.1 1238 916.2 1237.5 916.5 1237C916.8 1236.4 917.9 1236 918.8 1236C919.7 1236 921.8 1235.3 923.4 1234.5C924.9 1233.7 927 1233 928 1233C929 1233 930.5 1232.3 931.4 1231.5C932.2 1230.7 934 1230 935.3 1230C936.7 1230 938.3 1229.4 938.9 1228.6C939.6 1227.8 941.6 1226.9 943.5 1226.6C945.4 1226.2 947 1225.5 947 1225C947 1224.4 948 1224 949.3 1224C950.5 1224 952.4 1223.3 953.4 1222.5C954.5 1221.7 956.1 1221 957.1 1221C958 1221 959.3 1220.3 960 1219.5C960.7 1218.7 962.1 1218 963.1 1218C964 1218 965.5 1217.3 966.4 1216.5C967.2 1215.7 968.4 1215 969 1215C970.1 1215 973.8 1213.3 978 1210.9C978.8 1210.4 980.2 1209.7 981 1209.4C981.8 1209.1 983.2 1208.4 984 1207.9C984.8 1207.4 986.2 1206.7 987 1206.4C987.8 1206.1 989.2 1205.4 990 1204.9C990.8 1204.4 992.2 1203.7 993 1203.4C993.8 1203.1 995.4 1202.4 996.5 1201.8C997.6 1201.2 1001.4 1199.1 1005 1197.3C1008.6 1195.4 1012.9 1193 1014.5 1191.9C1016.2 1190.9 1018.7 1189.5 1020.3 1188.9C1021.8 1188.3 1023 1187.4 1023 1187C1023 1186.6 1024.1 1185.9 1025.5 1185.6C1026.9 1185.2 1028 1184.5 1028 1184C1028 1183.4 1028.6 1183 1029.4 1183C1030.2 1183 1031.5 1182.4 1032.2 1181.7C1032.9 1181 1034.2 1180.1 1035 1179.7C1035.8 1179.3 1037.9 1178.1 1039.5 1177C1041.2 1175.9 1043.2 1174.7 1044 1174.3C1044.8 1174 1047.1 1172.4 1049.1 1170.8C1051.1 1169.3 1053.1 1168 1053.5 1168C1053.9 1168 1055.9 1166.6 1058 1165C1060.1 1163.3 1062.3 1162 1062.9 1162C1063.5 1162 1064 1161.5 1064 1161C1064 1160.4 1064.5 1160 1065.2 1160C1065.8 1160 1067 1159.3 1067.9 1158.5C1068.8 1157.7 1074.2 1153.6 1080 1149.3C1085.8 1145.1 1091.3 1141 1092.2 1140.1C1093.1 1139.2 1094.5 1138 1095.2 1137.5C1095.9 1136.9 1100.1 1133.6 1104.5 1130C1134.1 1106 1172.8 1066.7 1193.7 1039.3C1195.7 1036.7 1198.1 1033.7 1199.1 1032.6C1200.1 1031.6 1202.2 1028.8 1203.7 1026.6C1205.3 1024.3 1207.5 1021.4 1208.8 1020C1210 1018.6 1211 1017.2 1211 1016.8C1211 1016.4 1212.9 1013.4 1215.3 1010.3C1219.3 1005 1226 995.3 1228.5 991.2C1230.5 987.9 1234.5 981.4 1235.7 979.5C1236.4 978.4 1237.2 976.8 1237.6 976C1238 975.2 1240 971.8 1242 968.5C1244 965.2 1246 961.8 1246.4 961C1246.8 960.2 1248.6 956.8 1250.5 953.5C1252.3 950.2 1255.4 944.1 1257.5 940C1259.5 935.9 1261.8 931.3 1262.6 929.8C1263.4 928.4 1264 926.5 1264 925.6C1264 924.7 1264.4 924 1264.9 924C1265.4 924 1266.2 923 1266.5 921.7C1266.9 920.5 1268.5 916.7 1270.1 913.2C1271.7 909.8 1273 906.6 1273 906.1C1273 905.6 1273.8 903.7 1274.7 901.8C1275.6 900 1276.9 897.3 1277.7 895.8C1278.4 894.4 1279 892.2 1279 891.1C1279 889.9 1279.4 889 1279.9 889C1280.4 889 1281.2 887.3 1281.8 885.2C1282.3 883.2 1284.2 877.7 1286 873C1289.3 864.2 1290.1 861.6 1292.1 854C1292.7 851.5 1293.9 848.3 1294.6 846.8C1295.4 845.4 1296 843.1 1296 841.8C1296 840.6 1296.7 838.2 1297.5 836.6C1298.3 835.1 1299 832.7 1299 831.5C1299 830.3 1299.7 827.9 1300.5 826.4C1301.3 824.8 1302 822.1 1302 820.4C1302 818.6 1302.7 815.9 1303.5 814.4C1304.3 812.8 1305 809.9 1305 808C1305.1 806.1 1305.7 803.4 1306.5 802C1307.3 800.6 1307.9 797.7 1308 795.4C1308 793.2 1308.6 790 1309.4 788.4C1310.2 786.8 1311 783.2 1311.1 780.5C1311.3 777.7 1312 774.1 1312.7 772.3C1313.4 770.5 1314 767.5 1314 765.6C1314 763.7 1314.7 759.5 1315.5 756.3C1316.3 753.2 1317 748 1317 744.8C1317 741.7 1317.4 738.9 1317.9 738.6C1318.9 737.9 1320 730.1 1320.1 721.5C1320.2 718.2 1320.6 715 1321 714.5C1321.9 713.4 1323.2 697.9 1323.2 688.7C1323.2 685.6 1323.6 682.7 1324.2 682.4C1324.7 682.1 1325 679.5 1324.9 676.7C1324.9 673.8 1325 666.5 1325.3 660.5C1326.4 638.4 1326.4 577 1325.3 577C1324.8 577.1 1322.9 579.6 1321 582.6Z" fill="#0D8E52" stroke="black" stroke-width="2" mask="url(#path-9-inside-1_161_23)"/>
</svg>
