<?xml version="1.0" encoding="utf-8"?>
<!-- Generator: Adobe Illustrator 28.0.0, SVG Export Plug-In . SVG Version: 6.00 Build 0)  -->
<svg version="1.2" baseProfile="tiny" id="Ebene_1" xmlns="http://www.w3.org/2000/svg" xmlns:xlink="http://www.w3.org/1999/xlink"
	 x="0px" y="0px" viewBox="0 0 205.54 161.85" overflow="visible" xml:space="preserve">
<g>
	<g>
		<path fill="#00549F" d="M90.99,113.73h4.52l4.8,18.13H96.5l-0.84-3.83h-4.82L90,131.86h-3.81L90.99,113.73z M91.47,125.03h3.55
			l-1.75-8.15h-0.05L91.47,125.03z"/>
		<path fill="#00549F" d="M108.33,130.26h-0.05c-0.37,0.68-0.86,1.17-1.45,1.49c-0.59,0.31-1.27,0.47-2.03,0.47
			c-1.12,0-1.98-0.3-2.58-0.91c-0.6-0.61-0.9-1.6-0.9-2.97V118.2h3.5v9.42c0,0.71,0.12,1.21,0.36,1.49
			c0.24,0.28,0.62,0.42,1.14,0.42c1.24,0,1.85-0.75,1.85-2.26v-9.06h3.5v13.66h-3.35V130.26z"/>
		<path fill="#00549F" d="M124.06,118.2v12.97c0,1.83-0.44,3.18-1.31,4.05c-0.87,0.87-2.33,1.31-4.38,1.31
			c-1.49,0-2.64-0.32-3.44-0.95c-0.8-0.63-1.21-1.54-1.21-2.7h3.35c0,0.44,0.18,0.79,0.53,1.04c0.17,0.12,0.35,0.21,0.55,0.28
			c0.19,0.07,0.4,0.1,0.62,0.1c0.71,0,1.21-0.23,1.5-0.7c0.29-0.47,0.43-1.05,0.43-1.76v-1.8h-0.05c-0.36,0.51-0.79,0.91-1.31,1.22
			c-0.52,0.3-1.05,0.46-1.61,0.46c-1.39,0-2.43-0.53-3.14-1.59c-0.7-1.06-1.05-2.83-1.05-5.32c0-0.8,0.05-1.61,0.14-2.44
			c0.09-0.83,0.29-1.58,0.58-2.25c0.3-0.67,0.73-1.21,1.29-1.64c0.57-0.42,1.32-0.63,2.27-0.63c0.49,0,1,0.14,1.52,0.41
			c0.52,0.27,0.96,0.76,1.29,1.47h0.05v-1.52H124.06z M117.05,125.46c0,0.47,0.02,0.92,0.06,1.35c0.04,0.42,0.13,0.8,0.25,1.13
			c0.13,0.33,0.3,0.59,0.53,0.79c0.23,0.19,0.53,0.29,0.9,0.29c0.37,0,0.68-0.1,0.93-0.29c0.25-0.19,0.44-0.46,0.58-0.8
			c0.14-0.34,0.25-0.75,0.3-1.23c0.06-0.48,0.09-1.01,0.09-1.59c0-1.66-0.13-2.84-0.39-3.53c-0.26-0.69-0.74-1.04-1.43-1.04
			c-0.39,0-0.7,0.08-0.94,0.25c-0.24,0.17-0.42,0.44-0.56,0.83c-0.14,0.38-0.22,0.89-0.27,1.52
			C117.07,123.77,117.05,124.54,117.05,125.46z"/>
		<path fill="#00549F" d="M128.96,127.39v0.46c0,0.59,0.16,1.07,0.47,1.43c0.31,0.36,0.77,0.55,1.36,0.55
			c0.54,0,0.97-0.14,1.29-0.41c0.32-0.27,0.48-0.68,0.48-1.22c0-0.44-0.13-0.77-0.38-1c-0.25-0.23-0.55-0.41-0.89-0.55l-2.46-0.89
			c-0.96-0.34-1.69-0.82-2.18-1.43c-0.49-0.62-0.74-1.41-0.74-2.37c0-0.56,0.09-1.09,0.28-1.59c0.19-0.5,0.48-0.94,0.89-1.31
			c0.41-0.37,0.93-0.67,1.56-0.89c0.63-0.22,1.4-0.33,2.3-0.33c1.59,0,2.77,0.34,3.53,1.02c0.76,0.68,1.14,1.63,1.14,2.87v0.56
			h-3.15c0-0.71-0.11-1.23-0.34-1.56s-0.63-0.5-1.21-0.5c-0.44,0-0.83,0.12-1.16,0.37c-0.33,0.25-0.5,0.61-0.5,1.1
			c0,0.34,0.11,0.64,0.32,0.91c0.21,0.27,0.61,0.5,1.21,0.69l2.11,0.71c1.1,0.37,1.88,0.86,2.34,1.46c0.46,0.6,0.69,1.42,0.69,2.45
			c0,0.71-0.13,1.34-0.38,1.88c-0.25,0.54-0.61,0.99-1.05,1.35c-0.45,0.36-0.99,0.62-1.61,0.8c-0.63,0.18-1.3,0.27-2.03,0.27
			c-1,0-1.82-0.1-2.46-0.3c-0.64-0.2-1.16-0.5-1.54-0.88c-0.38-0.38-0.65-0.84-0.8-1.37c-0.15-0.53-0.23-1.13-0.23-1.79v-0.48
			H128.96z"/>
		<path fill="#00549F" d="M137.53,113.73h3.5v5.74h0.05c0.37-0.54,0.79-0.95,1.26-1.22c0.46-0.27,1.03-0.41,1.69-0.41
			c1.44,0,2.5,0.56,3.17,1.69c0.68,1.13,1.02,2.96,1.02,5.5c0,2.54-0.34,4.37-1.02,5.5c-0.68,1.13-1.74,1.69-3.17,1.69
			c-0.71,0-1.31-0.14-1.79-0.42c-0.48-0.28-0.92-0.74-1.31-1.38h-0.05v1.45h-3.35V113.73z M141.03,125.03
			c0,1.49,0.11,2.61,0.34,3.36c0.23,0.75,0.73,1.13,1.51,1.13c0.76,0,1.26-0.38,1.49-1.13c0.23-0.75,0.34-1.87,0.34-3.36
			c0-1.49-0.11-2.61-0.34-3.36c-0.23-0.75-0.72-1.13-1.49-1.13c-0.78,0-1.28,0.38-1.51,1.13
			C141.15,122.41,141.03,123.54,141.03,125.03z"/>
		<path fill="#00549F" d="M157.09,130.26h-0.05c-0.37,0.68-0.86,1.17-1.45,1.49c-0.59,0.31-1.27,0.47-2.03,0.47
			c-1.12,0-1.98-0.3-2.58-0.91c-0.6-0.61-0.9-1.6-0.9-2.97V118.2h3.5v9.42c0,0.71,0.12,1.21,0.36,1.49
			c0.24,0.28,0.62,0.42,1.14,0.42c1.24,0,1.85-0.75,1.85-2.26v-9.06h3.5v13.66h-3.35V130.26z"/>
		<path fill="#00549F" d="M162.63,118.2h3.35v1.83h0.05c0.36-0.66,0.79-1.19,1.29-1.59c0.51-0.4,1.12-0.6,1.85-0.6
			c0.1,0,0.21,0,0.32,0.01c0.11,0.01,0.22,0.02,0.32,0.04v3.35c-0.19-0.02-0.37-0.03-0.55-0.04c-0.18-0.01-0.36-0.01-0.55-0.01
			c-0.3,0-0.61,0.04-0.91,0.13c-0.3,0.08-0.58,0.22-0.84,0.42c-0.25,0.19-0.46,0.45-0.61,0.76c-0.15,0.31-0.23,0.7-0.23,1.16v8.2
			h-3.5V118.2z"/>
		<path fill="#00549F" d="M181.32,118.2v12.97c0,1.83-0.44,3.18-1.31,4.05c-0.87,0.87-2.33,1.31-4.38,1.31
			c-1.49,0-2.64-0.32-3.44-0.95c-0.8-0.63-1.21-1.54-1.21-2.7h3.35c0,0.44,0.18,0.79,0.53,1.04c0.17,0.12,0.35,0.21,0.55,0.28
			c0.19,0.07,0.4,0.1,0.62,0.1c0.71,0,1.21-0.23,1.5-0.7c0.29-0.47,0.43-1.05,0.43-1.76v-1.8h-0.05c-0.36,0.51-0.79,0.91-1.31,1.22
			c-0.52,0.3-1.05,0.46-1.61,0.46c-1.39,0-2.43-0.53-3.14-1.59c-0.7-1.06-1.05-2.83-1.05-5.32c0-0.8,0.05-1.61,0.14-2.44
			c0.09-0.83,0.29-1.58,0.58-2.25c0.3-0.67,0.73-1.21,1.3-1.64c0.57-0.42,1.32-0.63,2.27-0.63c0.49,0,1,0.14,1.52,0.41
			c0.52,0.27,0.96,0.76,1.29,1.47h0.05v-1.52H181.32z M174.32,125.46c0,0.47,0.02,0.92,0.06,1.35c0.04,0.42,0.13,0.8,0.25,1.13
			c0.13,0.33,0.3,0.59,0.53,0.79c0.23,0.19,0.53,0.29,0.9,0.29c0.37,0,0.68-0.1,0.93-0.29c0.25-0.19,0.44-0.46,0.58-0.8
			c0.14-0.34,0.25-0.75,0.3-1.23c0.06-0.48,0.09-1.01,0.09-1.59c0-1.66-0.13-2.84-0.39-3.53c-0.26-0.69-0.74-1.04-1.43-1.04
			c-0.39,0-0.7,0.08-0.94,0.25c-0.24,0.17-0.42,0.44-0.56,0.83c-0.14,0.38-0.22,0.89-0.27,1.52
			C174.34,123.77,174.32,124.54,174.32,125.46z"/>
	</g>
	<path fill="#646567" d="M51.21,26.2h28.72v-7.53H52.81c-0.88,0-1.6,0.72-1.6,1.6V26.2z M79.93,143.11v-7.52H51.21v5.93
		c0,0.88,0.71,1.6,1.6,1.6H79.93z"/>
	<path fill="#FFE800" d="M51.21,109.61L30.14,88.54l-6.32,35.92c-0.62,3.53,1.77,6.79,5.16,7.39L51.21,109.61z M79.93,80.9
		l-41.2-41.2l-7.83,44.46l22.88,22.88L79.93,80.9z M39.5,35.32l40.43,40.43v-45.9H45.82c-3.1,0-5.75,2.22-6.28,5.28L39.5,35.32z
		 M79.93,131.95v-45.9l-23.57,23.57l-2.58,2.57l-19.76,19.76H79.93z"/>
	<path fill="#646567" d="M87.24,106.42h10.3V55.37h-10.3V106.42z M122.64,63.81h11.16v-8.44h-32.61v8.44h11.16v42.62h10.3V63.81z
		 M154.81,87.18H144.8l4.93-22.95h0.14L154.81,87.18z M169.68,106.42l-13.51-51.05h-12.73l-13.51,51.05h10.73l2.36-10.8h13.59
		l2.36,10.8H169.68z"/>
</g>
</svg>
